  <svg width="396" height="141.30365318040717" viewBox="0 0 357 127.3873843065792" class="looka-1j8o68f">
    <defs id="SvgjsDefs3019">

    </defs>
    <g id="SvgjsG3020" featurekey="nYIUkx-0" transform="matrix(4,0,0,4,39,5.708333333333332)" fill="#ffffff">
      <g xmlns="http://www.w3.org/2000/svg">
        <g>
          <path fill="#ffffff"
            d="M21,8h-8V2h-2v6H3C2.4,8,2,8.4,2,9v12c0,0.6,0.4,1,1,1h18c0.6,0,1-0.4,1-1V9C22,8.4,21.6,8,21,8z M20,20H4    V10h16V20z">
          </path>
        </g>
        <g>
          <rect x="16" y="12" fill="#ffffff" width="2" height="2"></rect>
        </g>
        <g>
          <rect x="16" y="16" fill="#ffffff" width="2" height="2"></rect>
        </g>
        <g>
          <polygon fill="#ffffff" points="8,18 10,18 10,16 12,16 12,14 10,14 10,12 8,12 8,14 6,14 6,16 8,16   ">
          </polygon>
        </g>
      </g>
    </g>
    <g id="SvgjsG3021" featurekey="PXhRQw-0"
      transform="matrix(6.430868625640869,0,0,6.430868625640869,153.14147952366082,-30.369776654983795)" fill="#ffffff">
      <path
        d="M2.86 20 c-0.84 0 -1.4267 -0.17334 -1.76 -0.52 s-0.5 -0.92 -0.5 -1.72 l0 -10.48 c0 -0.57334 0.16334 -1.0133 0.49 -1.32 s0.73 -0.46 1.21 -0.46 l3.82 0 l0.5 2.7 l-2.78 0 c-0.17334 0 -0.26 0.09334 -0.26 0.28 l0 8.54 c0 0.18666 0.08666 0.28 0.26 0.28 l2.78 0 l-0.52 2.7 l-3.24 0 z M7.62 5.5 l5.64 0 l0.5 2.7 l-3.16 0 l0 3.44 l2.4 0 l0 2.5 l-2.4 0 l0 3.16 l3.04 0 l-0.5 2.7 l-5.52 0 l0 -14.5 z M17.58 13.16 l0 6.84 l-2.82 0 l0 -14.5 l3.06 0 l1.58 6.12 l1.58 -6.12 l3.08 0 l0 14.5 l-2.82 0 l0 -6.84 l-1.84 5.8 z M30.98 5.5 l0.72 2.7 l-1.94 0 l0 11.8 l-2.96 0 l0 -11.8 l-1.94 0 l0.76 -2.7 l5.36 0 z">
      </path>
    </g>
    <g id="SvgjsG3021" featurekey="PXhRQw-0"
      transform="matrix(6.430868625640869,0,0,6.430868625640869,153.14147952366082,-30.369776654983795)" fill="#ffffff">
      <path
        d="M2.86 20 c-0.84 0 -1.4267 -0.17334 -1.76 -0.52 s-0.5 -0.92 -0.5 -1.72 l0 -10.48 c0 -0.57334 0.16334 -1.0133 0.49 -1.32 s0.73 -0.46 1.21 -0.46 l3.82 0 l0.5 2.7 l-2.78 0 c-0.17334 0 -0.26 0.09334 -0.26 0.28 l0 8.54 c0 0.18666 0.08666 0.28 0.26 0.28 l2.78 0 l-0.52 2.7 l-3.24 0 z M7.62 5.5 l5.64 0 l0.5 2.7 l-3.16 0 l0 3.44 l2.4 0 l0 2.5 l-2.4 0 l0 3.16 l3.04 0 l-0.5 2.7 l-5.52 0 l0 -14.5 z M17.58 13.16 l0 6.84 l-2.82 0 l0 -14.5 l3.06 0 l1.58 6.12 l1.58 -6.12 l3.08 0 l0 14.5 l-2.82 0 l0 -6.84 l-1.84 5.8 z M30.98 5.5 l0.72 2.7 l-1.94 0 l0 11.8 l-2.96 0 l0 -11.8 l-1.94 0 l0.76 -2.7 l5.36 0 z">
      </path>
    </g>
    <g id="SvgjsG3022" featurekey="mlRtrp-0"
      transform="matrix(0.6638451814651489,0,0,0.6638451814651489,45.93487666199178,113.85764213834528)" fill="#ffffff">
      <path
        d="M11.104 20 l-4.2188 0 l-6.7871 -13.418 l4.043 0 l4.8828 10.098 l4.873 -10.098 l4.043 0 z M23.8662015625 20 l0 -13.418 l3.623 0 l0 13.418 l-3.623 0 z M51.853359375 13.2812 c0 0.85938 -0.094385 1.6228 -0.28318 2.29 s-0.4541 1.2483 -0.7959 1.7432 s-0.75195 0.91472 -1.2305 1.2598 s-1.0107 0.62174 -1.5967 0.83007 s-1.2175 0.3597 -1.8945 0.4541 s-1.3835 0.1416 -2.1191 0.1416 l-8.5156 0 l0 -13.418 l8.4961 0 c0.73567 0 1.4421 0.047197 2.1191 0.1416 s1.3103 0.24577 1.8994 0.4541 s1.1247 0.4834 1.6064 0.8252 s0.89355 0.76172 1.2354 1.2598 s0.6071 1.0791 0.7959 1.7432 s0.2832 1.4226 0.2832 2.2754 z M48.201359374999996 13.2812 c0 -0.64453 -0.083008 -1.2044 -0.24902 -1.6797 s-0.43294 -0.86752 -0.80078 -1.1768 s-0.84799 -0.54037 -1.4404 -0.69337 s-1.3151 -0.22949 -2.168 -0.22949 l-4.502 0 l0 7.5781 l4.502 0 c0.85286 0 1.5755 -0.076494 2.168 -0.22949 s1.0726 -0.38737 1.4404 -0.70313 s0.63477 -0.71126 0.80078 -1.1865 s0.24902 -1.0352 0.24902 -1.6797 z M73.8451796875 19.33594 c-1.1003 0.36458 -2.1989 0.62664 -3.2959 0.78614 s-2.2185 0.23926 -3.3643 0.23926 c-1.4648 0 -2.7686 -0.15788 -3.9111 -0.47363 s-2.1045 -0.77311 -2.8857 -1.3721 s-1.377 -1.3313 -1.7871 -2.1973 s-0.61523 -1.8457 -0.61523 -2.9395 c0 -1.0156 0.20671 -1.958 0.62012 -2.8271 s0.99932 -1.6243 1.7578 -2.2656 s1.6748 -1.1426 2.749 -1.5039 s2.2722 -0.54199 3.5938 -0.54199 c1.2175 0 2.3323 0.16438 3.3447 0.49316 s1.8815 0.81543 2.6074 1.46 s1.2891 1.4388 1.6895 2.3828 s0.60059 2.0313 0.60059 3.2617 l0 0.89844 l-13.223 0 c0.11719 0.42317 0.31087 0.81055 0.58105 1.1621 s0.6364 0.65104 1.0986 0.89844 s1.0303 0.43945 1.7041 0.57617 s1.4795 0.20508 2.417 0.20508 c0.66406 0 1.3151 -0.040693 1.9531 -0.12207 s1.2337 -0.1888 1.7871 -0.32227 s1.053 -0.28158 1.499 -0.44435 s0.80566 -0.32553 1.0791 -0.48829 l0 3.1348 z M71.3451796875 12.0801 c-0.032549 -0.33203 -0.13183 -0.67548 -0.29784 -1.0303 s-0.42806 -0.67545 -0.78613 -0.9619 s-0.82683 -0.52246 -1.4063 -0.70801 s-1.3021 -0.27832 -2.168 -0.27832 c-0.8138 0 -1.5169 0.10091 -2.1094 0.30273 s-1.0889 0.45248 -1.4893 0.75196 s-0.71126 0.62175 -0.93262 0.9668 s-0.36459 0.66406 -0.4297 0.95703 l9.6191 0 z M99.332140625 13.300799999999999 c0 1.1523 -0.21159 2.1696 -0.63477 3.0518 s-1.0286 1.6194 -1.8164 2.2119 s-1.7432 1.04 -2.8662 1.3428 s-2.3845 0.4541 -3.7842 0.4541 s-2.6644 -0.15137 -3.7939 -0.4541 s-2.0915 -0.75032 -2.8857 -1.3428 s-1.4063 -1.3298 -1.8359 -2.2119 s-0.64453 -1.8994 -0.64453 -3.0518 s0.21484 -2.1696 0.64453 -3.0518 s1.0417 -1.6194 1.8359 -2.2119 s1.7562 -1.04 2.8857 -1.3428 s2.3942 -0.4541 3.7939 -0.4541 s2.6611 0.15137 3.7842 0.4541 s2.0784 0.75032 2.8662 1.3428 s1.3933 1.3298 1.8164 2.2119 s0.63477 1.8994 0.63477 3.0518 z M95.670140625 13.300799999999999 c0 -0.5013 -0.079756 -1.001 -0.23926 -1.499 s-0.44271 -0.94563 -0.84961 -1.3428 s-0.96191 -0.7194 -1.665 -0.9668 s-1.5983 -0.37109 -2.6855 -0.37109 c-0.72917 0 -1.3704 0.056963 -1.9238 0.1709 s-1.0319 0.27182 -1.4355 0.47364 s-0.74219 0.43783 -1.0156 0.70802 s-0.49153 0.5599 -0.6543 0.86915 s-0.27832 0.63151 -0.34668 0.9668 s-0.10254 0.66568 -0.10254 0.99121 c0 0.33203 0.03418 0.66731 0.10254 1.0059 s0.18392 0.66244 0.34668 0.97169 s0.38086 0.59733 0.6543 0.86426 s0.61198 0.49967 1.0156 0.69823 s0.88216 0.35481 1.4355 0.46875 s1.1946 0.1709 1.9238 0.1709 c1.0872 0 1.9824 -0.1237 2.6855 -0.37109 s1.2581 -0.56966 1.665 -0.9668 s0.69011 -0.84473 0.84961 -1.3428 s0.23926 -0.99775 0.23926 -1.499 z M116.0786953125 15.039100000000001 c0 0.89192 -0.14484 1.6602 -0.43456 2.3047 s-0.71289 1.1751 -1.2695 1.5918 s-1.2386 0.72429 -2.0459 0.92285 s-1.7285 0.29785 -2.7637 0.29785 c-0.48828 0 -0.98955 -0.024414 -1.5039 -0.073242 s-1.0091 -0.10905 -1.4844 -0.18066 s-0.91309 -0.14811 -1.3135 -0.22948 s-0.73405 -0.15787 -1.001 -0.22948 l0 -3.1445 c0.27344 0.11067 0.57292 0.22298 0.89844 0.33691 s0.68848 0.21647 1.0889 0.30762 s0.8431 0.16602 1.3281 0.22461 s1.0205 0.087891 1.6064 0.087891 c0.63151 0 1.1572 -0.06999 1.5771 -0.20996 s0.75684 -0.33528 1.0107 -0.58594 s0.43294 -0.54525 0.53711 -0.8838 s0.15625 -0.70964 0.15625 -1.1133 l0 -7.8809 l3.6133 0 l0 8.457 z M127.474646875 6.582000000000001 l-0.000019073 7.5586 c0 0.5013 0.042314 0.9554 0.12695 1.3623 s0.24089 0.75521 0.46875 1.0449 s0.54688 0.51433 0.95703 0.67383 s0.94401 0.23926 1.6016 0.23926 c0.49479 0 1.014 -0.068359 1.5576 -0.20508 s1.0823 -0.31901 1.6162 -0.54688 s1.0433 -0.4899 1.5283 -0.78612 s0.9196 -0.60384 1.3037 -0.92285 l0 -8.418 l3.6133 0 l0 13.418 l-3.6133 0 l0 -1.8359 c-0.45573 0.26042 -0.94076 0.52246 -1.4551 0.78613 s-1.0612 0.5013 -1.6406 0.71289 s-1.1946 0.38412 -1.8457 0.51759 s-1.3379 0.2002 -2.0605 0.2002 c-0.90495 0 -1.7155 -0.10905 -2.4316 -0.32715 s-1.3216 -0.52734 -1.8164 -0.92773 s-0.87402 -0.88542 -1.1377 -1.4551 s-0.39551 -1.2061 -0.39551 -1.9092 l0 -9.1797 l3.623 0 z M163.1381484375 19.33594 c-1.1003 0.36458 -2.1989 0.62664 -3.2959 0.78614 s-2.2185 0.23926 -3.3643 0.23926 c-1.4648 0 -2.7686 -0.15788 -3.9111 -0.47363 s-2.1045 -0.77311 -2.8857 -1.3721 s-1.377 -1.3313 -1.7871 -2.1973 s-0.61523 -1.8457 -0.61523 -2.9395 c0 -1.0156 0.20671 -1.958 0.62012 -2.8271 s0.99932 -1.6243 1.7578 -2.2656 s1.6748 -1.1426 2.749 -1.5039 s2.2722 -0.54199 3.5938 -0.54199 c1.2175 0 2.3323 0.16438 3.3447 0.49316 s1.8815 0.81543 2.6074 1.46 s1.2891 1.4388 1.6895 2.3828 s0.60059 2.0313 0.60059 3.2617 l0 0.89844 l-13.223 0 c0.11719 0.42317 0.31087 0.81055 0.58105 1.1621 s0.6364 0.65104 1.0986 0.89844 s1.0303 0.43945 1.7041 0.57617 s1.4795 0.20508 2.417 0.20508 c0.66406 0 1.3151 -0.040693 1.9531 -0.12207 s1.2337 -0.1888 1.7871 -0.32227 s1.053 -0.28158 1.499 -0.44435 s0.80566 -0.32553 1.0791 -0.48829 l0 3.1348 z M160.6381484375 12.0801 c-0.032549 -0.33203 -0.13183 -0.67548 -0.29784 -1.0303 s-0.42806 -0.67545 -0.78613 -0.9619 s-0.82683 -0.52246 -1.4063 -0.70801 s-1.3021 -0.27832 -2.168 -0.27832 c-0.8138 0 -1.5169 0.10091 -2.1094 0.30273 s-1.0889 0.45248 -1.4893 0.75196 s-0.71126 0.62175 -0.93262 0.9668 s-0.36459 0.66406 -0.4297 0.95703 l9.6191 0 z M179.904109375 6.24 c1.3151 0 2.5375 0.11229 3.667 0.33689 s2.1663 0.5127 3.1104 0.86426 l0 3.2813 c-0.37109 -0.20833 -0.78938 -0.41016 -1.2549 -0.60547 s-0.97168 -0.36784 -1.5186 -0.51758 s-1.1328 -0.27018 -1.7578 -0.36132 s-1.2825 -0.13672 -1.9727 -0.13672 c-0.85938 0 -1.6081 0.061846 -2.2461 0.18555 s-1.1849 0.28972 -1.6406 0.49805 s-0.83008 0.45084 -1.123 0.72753 s-0.52409 0.57129 -0.69336 0.88379 s-0.28646 0.63151 -0.35156 0.95703 s-0.097656 0.64127 -0.097656 0.94726 c0 0.26692 0.027666 0.55664 0.083008 0.86914 s0.15951 0.625 0.31251 0.9375 s0.36621 0.61198 0.63965 0.89844 s0.62988 0.54036 1.0693 0.76172 s0.96843 0.39877 1.5869 0.53224 s1.3542 0.2002 2.207 0.2002 c0.42969 0 0.80403 -0.013018 1.123 -0.039063 s0.61035 -0.061855 0.87402 -0.10743 s0.51106 -0.10092 0.74219 -0.16603 s0.47038 -0.13347 0.71777 -0.20508 l0 -1.6211 l-4.0625 0 l0 -2.9395 l7.6855 0 l0 6.8555 c-0.48177 0.16276 -1.0205 0.31088 -1.6162 0.44435 s-1.2109 0.2474 -1.8457 0.34181 s-1.2712 0.16765 -1.9092 0.21973 s-1.2402 0.078125 -1.8066 0.078125 c-0.87891 0 -1.722 -0.058594 -2.5293 -0.17578 s-1.5608 -0.29785 -2.2607 -0.54199 s-1.3379 -0.55501 -1.9141 -0.93262 s-1.0677 -0.82683 -1.4746 -1.3477 s-0.72266 -1.1182 -0.94727 -1.792 s-0.33691 -1.4307 -0.33691 -2.2705 c0 -0.83333 0.11719 -1.5886 0.35156 -2.2656 s0.56152 -1.2761 0.98145 -1.7969 s0.92448 -0.97005 1.5137 -1.3477 s1.237 -0.68848 1.9434 -0.93262 s1.4616 -0.4248 2.2656 -0.54199 s1.6325 -0.17578 2.4854 -0.17578 z M211.9932734375 13.300799999999999 c0 1.1523 -0.21159 2.1696 -0.63477 3.0518 s-1.0286 1.6194 -1.8164 2.2119 s-1.7432 1.04 -2.8662 1.3428 s-2.3845 0.4541 -3.7842 0.4541 s-2.6644 -0.15137 -3.7939 -0.4541 s-2.0915 -0.75032 -2.8857 -1.3428 s-1.4063 -1.3298 -1.8359 -2.2119 s-0.64453 -1.8994 -0.64453 -3.0518 s0.21484 -2.1696 0.64453 -3.0518 s1.0417 -1.6194 1.8359 -2.2119 s1.7562 -1.04 2.8857 -1.3428 s2.3942 -0.4541 3.7939 -0.4541 s2.6611 0.15137 3.7842 0.4541 s2.0784 0.75032 2.8662 1.3428 s1.3933 1.3298 1.8164 2.2119 s0.63477 1.8994 0.63477 3.0518 z M208.3312734375 13.300799999999999 c0 -0.5013 -0.079756 -1.001 -0.23926 -1.499 s-0.44271 -0.94563 -0.84961 -1.3428 s-0.96191 -0.7194 -1.665 -0.9668 s-1.5983 -0.37109 -2.6855 -0.37109 c-0.72917 0 -1.3704 0.056963 -1.9238 0.1709 s-1.0319 0.27182 -1.4355 0.47364 s-0.74219 0.43783 -1.0156 0.70802 s-0.49153 0.5599 -0.6543 0.86915 s-0.27832 0.63151 -0.34668 0.9668 s-0.10254 0.66568 -0.10254 0.99121 c0 0.33203 0.03418 0.66731 0.10254 1.0059 s0.18392 0.66244 0.34668 0.97169 s0.38086 0.59733 0.6543 0.86426 s0.61198 0.49967 1.0156 0.69823 s0.88216 0.35481 1.4355 0.46875 s1.1946 0.1709 1.9238 0.1709 c1.0872 0 1.9824 -0.1237 2.6855 -0.37109 s1.2581 -0.56966 1.665 -0.9668 s0.69011 -0.84473 0.84961 -1.3428 s0.23926 -0.99775 0.23926 -1.499 z M231.386828125 10.3613 c-0.25391 -0.1237 -0.58916 -0.26372 -1.0059 -0.41997 s-0.88867 -0.30437 -1.416 -0.44434 s-1.1003 -0.25716 -1.7188 -0.35156 s-1.2532 -0.1416 -1.9043 -0.1416 c-0.52083 0 -0.96517 0.016279 -1.333 0.048828 s-0.67709 0.074863 -0.92774 0.12694 s-0.44922 0.1123 -0.5957 0.18066 s-0.25879 0.13835 -0.33691 0.20996 s-0.12858 0.14322 -0.15137 0.21483 s-0.03418 0.13672 -0.03418 0.19531 c0 0.19531 0.097656 0.36621 0.29297 0.5127 s0.46224 0.27669 0.80078 0.39063 s0.73242 0.22136 1.1816 0.32227 s0.9261 0.20508 1.4307 0.3125 s1.0254 0.22461 1.5625 0.35156 s1.0579 0.27507 1.5625 0.44434 s0.98145 0.36621 1.4307 0.59082 s0.8431 0.48665 1.1816 0.78613 s0.60547 0.64453 0.80078 1.0352 s0.29297 0.83659 0.29297 1.3379 c0 0.64453 -0.11394 1.1979 -0.3418 1.6602 s-0.53223 0.85286 -0.91309 1.1719 s-0.82194 0.57455 -1.3232 0.76661 s-1.0271 0.34018 -1.5771 0.44435 s-1.1067 0.17253 -1.6699 0.20508 s-1.0986 0.048828 -1.6064 0.048828 c-1.3281 0 -2.5569 -0.10905 -3.6865 -0.32715 s-2.1272 -0.4899 -2.9932 -0.81542 l0 -3.2031 c0.89192 0.49479 1.9092 0.88217 3.0518 1.1621 s2.3649 0.41992 3.667 0.41992 c0.76823 0 1.3948 -0.040693 1.8799 -0.12207 s0.86426 -0.18555 1.1377 -0.3125 s0.45898 -0.2653 0.55664 -0.41504 s0.14648 -0.29297 0.14648 -0.42969 c0 -0.21484 -0.097656 -0.40202 -0.29297 -0.56152 s-0.46224 -0.29947 -0.80078 -0.41991 s-0.73242 -0.23111 -1.1816 -0.33202 s-0.9261 -0.20182 -1.4307 -0.30272 s-1.0237 -0.20996 -1.5576 -0.32715 s-1.053 -0.25554 -1.5576 -0.41504 s-0.98145 -0.34505 -1.4307 -0.55664 s-0.8431 -0.46225 -1.1816 -0.75196 s-0.60547 -0.625 -0.80078 -1.0059 s-0.29297 -0.82194 -0.29297 -1.3232 c0 -0.59245 0.10417 -1.1035 0.3125 -1.5332 s0.4899 -0.7959 0.84472 -1.0986 s0.76497 -0.54851 1.2305 -0.7373 s0.95541 -0.33528 1.4697 -0.43945 s1.0352 -0.17578 1.5625 -0.21484 s1.0286 -0.058594 1.5039 -0.058594 c0.52083 0 1.0563 0.026045 1.6064 0.078125 s1.0921 0.12532 1.626 0.21973 s1.0498 0.20346 1.5479 0.32716 s0.95866 0.25391 1.3818 0.39063 l0 3.1055 z M266.843640625 14.8437 c0 0.87239 -0.21481 1.6504 -0.6445 2.334 s-1.04 1.2614 -1.8311 1.7334 s-1.748 0.8317 -2.8711 1.0791 s-2.3812 0.37109 -3.7744 0.37109 c-0.61198 0 -1.2549 -0.024414 -1.9287 -0.073242 s-1.3313 -0.11719 -1.9727 -0.20508 s-1.2419 -0.1888 -1.8018 -0.30273 s-1.0319 -0.23926 -1.416 -0.37598 l0 -3.1836 c0.41667 0.17578 0.88054 0.3418 1.3916 0.49805 s1.0661 0.2946 1.665 0.41504 s1.2419 0.21484 1.9287 0.2832 s1.4144 0.10254 2.1826 0.10254 c0.72266 0 1.3591 -0.042314 1.9092 -0.12695 s1.0271 -0.19857 1.4307 -0.34181 s0.73893 -0.30762 1.0059 -0.49316 s0.48177 -0.37761 0.64453 -0.57617 s0.27832 -0.39551 0.34668 -0.59082 s0.10254 -0.37761 0.10254 -0.54688 l0 -1.1816 c-0.66406 0.48828 -1.4551 0.8903 -2.373 1.2061 s-1.9629 0.47363 -3.1348 0.47363 c-1.3606 0 -2.4951 -0.13184 -3.4033 -0.39551 s-1.6357 -0.64453 -2.1826 -1.1426 s-0.93587 -1.1052 -1.167 -1.8213 s-0.34668 -1.5234 -0.34668 -2.4219 l0 -2.9785 l3.6426 0 l0 2.6172 c0 0.52734 0.06999 0.99609 0.20996 1.4063 s0.36133 0.75358 0.66406 1.0303 s0.69499 0.48665 1.1768 0.62988 s1.0645 0.21484 1.748 0.21484 c0.57942 0 1.1279 -0.071611 1.6455 -0.21484 s0.99443 -0.33203 1.4307 -0.56641 s0.83008 -0.5013 1.1816 -0.80078 s0.6543 -0.60547 0.9082 -0.91797 l0 -3.3984 l3.6328 0 l0 8.2617 z M300.806875 19.08203 c-0.46875 0.19531 -0.94076 0.37102 -1.416 0.52727 s-0.9668 0.29134 -1.4746 0.40527 s-1.0433 0.2002 -1.6064 0.25879 s-1.167 0.087891 -1.8115 0.087891 c-1.3672 0 -2.6253 -0.14648 -3.7744 -0.43945 s-2.1387 -0.73405 -2.9688 -1.3232 s-1.4763 -1.3249 -1.9385 -2.207 s-0.69336 -1.9124 -0.69336 -3.0908 s0.23112 -2.2087 0.69336 -3.0908 s1.1084 -1.6179 1.9385 -2.207 s1.8196 -1.0303 2.9688 -1.3232 s2.4072 -0.43945 3.7744 -0.43945 c0.64453 0 1.2483 0.029297 1.8115 0.087891 s1.0986 0.14485 1.6064 0.25879 s0.99932 0.24902 1.4746 0.40527 s0.94727 0.33203 1.416 0.52734 l0 3.2617 c-0.37109 -0.20183 -0.76172 -0.40202 -1.1719 -0.60059 s-0.86263 -0.3776 -1.3574 -0.5371 s-1.0384 -0.28971 -1.6309 -0.39062 s-1.2598 -0.15137 -2.002 -0.15137 c-1.1394 0 -2.085 0.11719 -2.8369 0.35156 s-1.3525 0.54688 -1.8018 0.9375 s-0.76497 0.83821 -0.94727 1.3428 s-0.27344 1.0271 -0.27344 1.5674 c0 0.35808 0.039063 0.71127 0.11719 1.0596 s0.20833 0.67709 0.39063 0.98633 s0.41992 0.59408 0.71289 0.8545 s0.65755 0.48503 1.0938 0.67383 s0.94564 0.33691 1.5283 0.44434 s1.2549 0.16113 2.0166 0.16113 c0.74219 0 1.4095 -0.047197 2.002 -0.1416 s1.136 -0.21973 1.6309 -0.37598 s0.94727 -0.33366 1.3574 -0.53223 s0.80078 -0.40201 1.1719 -0.61034 l0 3.2617 l0 0 z M325.2784296875 13.300799999999999 c0 1.1523 -0.21159 2.1696 -0.63477 3.0518 s-1.0286 1.6194 -1.8164 2.2119 s-1.7432 1.04 -2.8662 1.3428 s-2.3845 0.4541 -3.7842 0.4541 s-2.6644 -0.15137 -3.7939 -0.4541 s-2.0915 -0.75032 -2.8857 -1.3428 s-1.4063 -1.3298 -1.8359 -2.2119 s-0.64453 -1.8994 -0.64453 -3.0518 s0.21484 -2.1696 0.64453 -3.0518 s1.0417 -1.6194 1.8359 -2.2119 s1.7562 -1.04 2.8857 -1.3428 s2.3942 -0.4541 3.7939 -0.4541 s2.6611 0.15137 3.7842 0.4541 s2.0784 0.75032 2.8662 1.3428 s1.3933 1.3298 1.8164 2.2119 s0.63477 1.8994 0.63477 3.0518 z M321.6164296875 13.300799999999999 c0 -0.5013 -0.079756 -1.001 -0.23926 -1.499 s-0.44271 -0.94563 -0.84961 -1.3428 s-0.96191 -0.7194 -1.665 -0.9668 s-1.5983 -0.37109 -2.6855 -0.37109 c-0.72917 0 -1.3704 0.056963 -1.9238 0.1709 s-1.0319 0.27182 -1.4355 0.47364 s-0.74219 0.43783 -1.0156 0.70802 s-0.49153 0.5599 -0.6543 0.86915 s-0.27832 0.63151 -0.34668 0.9668 s-0.10254 0.66568 -0.10254 0.99121 c0 0.33203 0.03418 0.66731 0.10254 1.0059 s0.18392 0.66244 0.34668 0.97169 s0.38086 0.59733 0.6543 0.86426 s0.61198 0.49967 1.0156 0.69823 s0.88216 0.35481 1.4355 0.46875 s1.1946 0.1709 1.9238 0.1709 c1.0872 0 1.9824 -0.1237 2.6855 -0.37109 s1.2581 -0.56966 1.665 -0.9668 s0.69011 -0.84473 0.84961 -1.3428 s0.23926 -0.99775 0.23926 -1.499 z M345.091984375 20 l0.000038147 -7.5195 c0 -0.5013 -0.042314 -0.9554 -0.12695 -1.3623 s-0.24252 -0.75521 -0.47364 -1.0449 s-0.55339 -0.51433 -0.9668 -0.67383 s-0.94563 -0.23926 -1.5967 -0.23926 c-0.49479 0 -1.014 0.066729 -1.5576 0.2002 s-1.0823 0.31088 -1.6162 0.53224 s-1.0433 0.47852 -1.5283 0.77148 s-0.91635 0.59896 -1.2939 0.91797 l0 8.418 l-3.623 0 l0 -13.418 l3.623 0 l0 1.8359 c0.45573 -0.26042 0.94076 -0.51921 1.4551 -0.77637 s1.0612 -0.4899 1.6406 -0.69823 s1.1946 -0.3776 1.8457 -0.5078 s1.3379 -0.19531 2.0605 -0.19531 c0.90495 0 1.7139 0.10905 2.4268 0.32715 s1.3167 0.52734 1.8115 0.92773 s0.87402 0.88542 1.1377 1.4551 s0.39551 1.2061 0.39551 1.9092 l0 9.1406 l-3.6133 0 z M368.9385859375 10.3613 c-0.25391 -0.1237 -0.58916 -0.26372 -1.0059 -0.41997 s-0.88867 -0.30437 -1.416 -0.44434 s-1.1003 -0.25716 -1.7188 -0.35156 s-1.2532 -0.1416 -1.9043 -0.1416 c-0.52083 0 -0.96517 0.016279 -1.333 0.048828 s-0.67709 0.074863 -0.92774 0.12694 s-0.44922 0.1123 -0.5957 0.18066 s-0.25879 0.13835 -0.33691 0.20996 s-0.12858 0.14322 -0.15137 0.21483 s-0.03418 0.13672 -0.03418 0.19531 c0 0.19531 0.097656 0.36621 0.29297 0.5127 s0.46224 0.27669 0.80078 0.39063 s0.73242 0.22136 1.1816 0.32227 s0.9261 0.20508 1.4307 0.3125 s1.0254 0.22461 1.5625 0.35156 s1.0579 0.27507 1.5625 0.44434 s0.98145 0.36621 1.4307 0.59082 s0.8431 0.48665 1.1816 0.78613 s0.60547 0.64453 0.80078 1.0352 s0.29297 0.83659 0.29297 1.3379 c0 0.64453 -0.11394 1.1979 -0.3418 1.6602 s-0.53223 0.85286 -0.91309 1.1719 s-0.82194 0.57455 -1.3232 0.76661 s-1.0271 0.34018 -1.5771 0.44435 s-1.1067 0.17253 -1.6699 0.20508 s-1.0986 0.048828 -1.6064 0.048828 c-1.3281 0 -2.5569 -0.10905 -3.6865 -0.32715 s-2.1272 -0.4899 -2.9932 -0.81542 l0 -3.2031 c0.89192 0.49479 1.9092 0.88217 3.0518 1.1621 s2.3649 0.41992 3.667 0.41992 c0.76823 0 1.3948 -0.040693 1.8799 -0.12207 s0.86426 -0.18555 1.1377 -0.3125 s0.45898 -0.2653 0.55664 -0.41504 s0.14648 -0.29297 0.14648 -0.42969 c0 -0.21484 -0.097656 -0.40202 -0.29297 -0.56152 s-0.46224 -0.29947 -0.80078 -0.41991 s-0.73242 -0.23111 -1.1816 -0.33202 s-0.9261 -0.20182 -1.4307 -0.30272 s-1.0237 -0.20996 -1.5576 -0.32715 s-1.053 -0.25554 -1.5576 -0.41504 s-0.98145 -0.34505 -1.4307 -0.55664 s-0.8431 -0.46225 -1.1816 -0.75196 s-0.60547 -0.625 -0.80078 -1.0059 s-0.29297 -0.82194 -0.29297 -1.3232 c0 -0.59245 0.10417 -1.1035 0.3125 -1.5332 s0.4899 -0.7959 0.84472 -1.0986 s0.76497 -0.54851 1.2305 -0.7373 s0.95541 -0.33528 1.4697 -0.43945 s1.0352 -0.17578 1.5625 -0.21484 s1.0286 -0.058594 1.5039 -0.058594 c0.52083 0 1.0563 0.026045 1.6064 0.078125 s1.0921 0.12532 1.626 0.21973 s1.0498 0.20346 1.5479 0.32716 s0.95866 0.25391 1.3818 0.39063 l0 3.1055 z M394.572375 13.300799999999999 c0 1.1523 -0.21159 2.1696 -0.63477 3.0518 s-1.0286 1.6194 -1.8164 2.2119 s-1.7432 1.04 -2.8662 1.3428 s-2.3845 0.4541 -3.7842 0.4541 s-2.6644 -0.15137 -3.7939 -0.4541 s-2.0915 -0.75032 -2.8857 -1.3428 s-1.4063 -1.3298 -1.8359 -2.2119 s-0.64453 -1.8994 -0.64453 -3.0518 s0.21484 -2.1696 0.64453 -3.0518 s1.0417 -1.6194 1.8359 -2.2119 s1.7562 -1.04 2.8857 -1.3428 s2.3942 -0.4541 3.7939 -0.4541 s2.6611 0.15137 3.7842 0.4541 s2.0784 0.75032 2.8662 1.3428 s1.3933 1.3298 1.8164 2.2119 s0.63477 1.8994 0.63477 3.0518 z M390.910375 13.300799999999999 c0 -0.5013 -0.079756 -1.001 -0.23926 -1.499 s-0.44271 -0.94563 -0.84961 -1.3428 s-0.96191 -0.7194 -1.665 -0.9668 s-1.5983 -0.37109 -2.6855 -0.37109 c-0.72917 0 -1.3704 0.056963 -1.9238 0.1709 s-1.0319 0.27182 -1.4355 0.47364 s-0.74219 0.43783 -1.0156 0.70802 s-0.49153 0.5599 -0.6543 0.86915 s-0.27832 0.63151 -0.34668 0.9668 s-0.10254 0.66568 -0.10254 0.99121 c0 0.33203 0.03418 0.66731 0.10254 1.0059 s0.18392 0.66244 0.34668 0.97169 s0.38086 0.59733 0.6543 0.86426 s0.61198 0.49967 1.0156 0.69823 s0.88216 0.35481 1.4355 0.46875 s1.1946 0.1709 1.9238 0.1709 c1.0872 0 1.9824 -0.1237 2.6855 -0.37109 s1.2581 -0.56966 1.665 -0.9668 s0.69011 -0.84473 0.84961 -1.3428 s0.23926 -0.99775 0.23926 -1.499 z M405.2256296875 14.2578 c0 0.55989 0.05208 1.0173 0.15625 1.3721 s0.27344 0.63639 0.50781 0.84472 s0.53874 0.35156 0.91309 0.42969 s0.83496 0.11719 1.3818 0.11719 l6.875 0 l0 2.9785 l-7.6172 0 c-1.0547 0 -1.9515 -0.08626 -2.6904 -0.25879 s-1.3428 -0.43945 -1.8115 -0.80078 s-0.80892 -0.81868 -1.0205 -1.3721 s-0.31738 -1.2109 -0.31738 -1.9727 l0 -9.0137 l3.623 0 l0 7.6758 z M433.06684375 20 l0 -1.3184 c-0.46224 0.25391 -0.95865 0.47852 -1.4893 0.67383 s-1.0823 0.36133 -1.6553 0.49805 s-1.1638 0.23926 -1.7725 0.30762 s-1.2224 0.10254 -1.8408 0.10254 c-0.72266 0 -1.4209 -0.068359 -2.0947 -0.20508 s-1.2712 -0.35808 -1.792 -0.66406 s-0.93912 -0.70638 -1.2549 -1.2012 s-0.47363 -1.1003 -0.47363 -1.8164 c0 -0.90495 0.24739 -1.6585 0.74219 -2.2607 s1.25 -1.0954 2.2656 -1.4795 s2.2998 -0.68033 3.8525 -0.88866 s3.3903 -0.37109 5.5127 -0.48828 l0 -0.2832 c0 -0.22136 -0.058594 -0.44108 -0.17578 -0.65918 s-0.3304 -0.41016 -0.63965 -0.57617 s-0.73242 -0.3011 -1.2695 -0.40527 s-1.2224 -0.15625 -2.0557 -0.15625 c-0.65755 0 -1.3069 0.03418 -1.9482 0.10254 s-1.2598 0.16113 -1.8555 0.27832 s-1.1604 0.25391 -1.6943 0.41016 s-1.0188 0.31901 -1.4551 0.48828 l0 -3.2227 c0.45573 -0.11719 0.9668 -0.23112 1.5332 -0.3418 s1.1556 -0.2067 1.7676 -0.28808 s1.2305 -0.14648 1.8555 -0.19531 s1.2239 -0.073242 1.7969 -0.073242 c1.1263 0 2.1647 0.092773 3.1152 0.27832 s1.7692 0.47363 2.4561 0.86426 s1.2239 0.88542 1.6113 1.4844 s0.58105 1.3118 0.58105 2.1387 l0 8.8965 l-3.623 0 z M433.06684375 13.876999999999999 c-1.3933 0.05208 -2.5765 0.12693 -3.5498 0.22459 s-1.7822 0.21159 -2.4268 0.3418 s-1.1507 0.27018 -1.5186 0.41991 s-0.64291 0.30273 -0.82521 0.45898 s-0.2946 0.3125 -0.33691 0.46875 s-0.063477 0.29948 -0.063477 0.42969 c0 0.15625 0.042314 0.30762 0.12695 0.4541 s0.23275 0.27507 0.44435 0.38574 s0.49316 0.19856 0.84473 0.26367 s0.79427 0.097656 1.3281 0.097656 c0.59245 0 1.1719 -0.045576 1.7383 -0.13672 s1.1035 -0.21646 1.6113 -0.37597 s0.98467 -0.3483 1.4307 -0.5664 s0.84473 -0.45084 1.1963 -0.69823 l0 -1.7676 z M456.9229609375 10.3613 c-0.25391 -0.1237 -0.58916 -0.26372 -1.0059 -0.41997 s-0.88867 -0.30437 -1.416 -0.44434 s-1.1003 -0.25716 -1.7188 -0.35156 s-1.2532 -0.1416 -1.9043 -0.1416 c-0.52083 0 -0.96517 0.016279 -1.333 0.048828 s-0.67709 0.074863 -0.92774 0.12694 s-0.44922 0.1123 -0.5957 0.18066 s-0.25879 0.13835 -0.33691 0.20996 s-0.12858 0.14322 -0.15137 0.21483 s-0.03418 0.13672 -0.03418 0.19531 c0 0.19531 0.097656 0.36621 0.29297 0.5127 s0.46224 0.27669 0.80078 0.39063 s0.73242 0.22136 1.1816 0.32227 s0.9261 0.20508 1.4307 0.3125 s1.0254 0.22461 1.5625 0.35156 s1.0579 0.27507 1.5625 0.44434 s0.98145 0.36621 1.4307 0.59082 s0.8431 0.48665 1.1816 0.78613 s0.60547 0.64453 0.80078 1.0352 s0.29297 0.83659 0.29297 1.3379 c0 0.64453 -0.11394 1.1979 -0.3418 1.6602 s-0.53223 0.85286 -0.91309 1.1719 s-0.82194 0.57455 -1.3232 0.76661 s-1.0271 0.34018 -1.5771 0.44435 s-1.1067 0.17253 -1.6699 0.20508 s-1.0986 0.048828 -1.6064 0.048828 c-1.3281 0 -2.5569 -0.10905 -3.6865 -0.32715 s-2.1272 -0.4899 -2.9932 -0.81542 l0 -3.2031 c0.89192 0.49479 1.9092 0.88217 3.0518 1.1621 s2.3649 0.41992 3.667 0.41992 c0.76823 0 1.3948 -0.040693 1.8799 -0.12207 s0.86426 -0.18555 1.1377 -0.3125 s0.45898 -0.2653 0.55664 -0.41504 s0.14648 -0.29297 0.14648 -0.42969 c0 -0.21484 -0.097656 -0.40202 -0.29297 -0.56152 s-0.46224 -0.29947 -0.80078 -0.41991 s-0.73242 -0.23111 -1.1816 -0.33202 s-0.9261 -0.20182 -1.4307 -0.30272 s-1.0237 -0.20996 -1.5576 -0.32715 s-1.053 -0.25554 -1.5576 -0.41504 s-0.98145 -0.34505 -1.4307 -0.55664 s-0.8431 -0.46225 -1.1816 -0.75196 s-0.60547 -0.625 -0.80078 -1.0059 s-0.29297 -0.82194 -0.29297 -1.3232 c0 -0.59245 0.10417 -1.1035 0.3125 -1.5332 s0.4899 -0.7959 0.84472 -1.0986 s0.76497 -0.54851 1.2305 -0.7373 s0.95541 -0.33528 1.4697 -0.43945 s1.0352 -0.17578 1.5625 -0.21484 s1.0286 -0.058594 1.5039 -0.058594 c0.52083 0 1.0563 0.026045 1.6064 0.078125 s1.0921 0.12532 1.626 0.21973 s1.0498 0.20346 1.5479 0.32716 s0.95866 0.25391 1.3818 0.39063 l0 3.1055 z">
      </path>
    </g>
  </svg>